<svg width="24" height="19" viewBox="0 0 24 19" fill="none" xmlns="http://www.w3.org/2000/svg">
<path d="M1.76981 0.557526H22.2307C23.2074 0.557526 24 1.32015 24 2.25932C24 3.1985 23.2069 3.96112 22.2302 3.96112H1.76981C0.793101 3.9606 0 3.1985 0 2.25932C0 1.32015 0.793101 0.557526 1.76981 0.557526Z" fill="white"/>
<path d="M22.2307 11.2593H1.76981C0.792558 11.2593 0 10.4977 0 9.55753C0 8.61783 0.792558 7.85573 1.76981 7.85573H22.2307C23.208 7.85573 24.0005 8.61783 24.0005 9.55753C24.0005 10.4972 23.208 11.2593 22.2307 11.2593Z" fill="white"/>
<path d="M1.76981 15.1539H22.2307C23.2074 15.1539 24.0005 15.9165 24.0005 16.8557C24.0005 17.7949 23.2074 18.5575 22.2307 18.5575H1.76981C0.793101 18.5575 0 17.7949 0 16.8557C0 15.9165 0.793101 15.1539 1.76981 15.1539Z" fill="white"/>
</svg>
